<?xml version="1.0" standalone="no"?><!DOCTYPE svg PUBLIC "-//W3C//DTD SVG 1.1//EN" "http://www.w3.org/Graphics/SVG/1.1/DTD/svg11.dtd"><svg t="1592284715236" class="icon" viewBox="0 0 1024 1024" version="1.1" xmlns="http://www.w3.org/2000/svg" p-id="7116" xmlns:xlink="http://www.w3.org/1999/xlink" width="128" height="128"><defs><style type="text/css"></style></defs><path d="M968.106667 271.530667c-5.333333-1.962667-123.562667-41.429333-401.28 72.362666 63.786667-60.885333 181.248-141.866667 361.984-151.850666a21.333333 21.333333 0 0 0 20.138666-22.442667 20.906667 20.906667 0 0 0-22.442666-20.138667c-182.272 10.069333-303.914667 85.717333-375.210667 149.589334 45.269333-75.178667 140.458667-170.965333 339.114667-216.96a21.333333 21.333333 0 0 0-9.685334-41.6c-254.037333 58.88-352 195.882667-389.418666 282.453333-37.418667-86.570667-135.381333-223.573333-389.418667-282.453333a21.333333 21.333333 0 1 0-9.6 41.6C290.901333 128.128 386.048 223.914667 431.36 299.093333 360.021333 235.221333 238.378667 159.530667 56.106667 149.461333c-11.477333-1.536-21.802667 8.362667-22.442667 20.138667a21.248 21.248 0 0 0 20.096 22.442667c183.04 10.112 301.354667 93.098667 364.544 154.24C136.832 229.418667 20.608 269.653333 15.402667 271.573333a21.333333 21.333333 0 0 0-13.738667 21.888l51.456 577.450667a21.333333 21.333333 0 0 0 21.248 19.456h0.341333c216.917333-3.242667 400.682667 124.970667 402.517334 126.250667 0.384 0.298667 0.938667 0.170667 1.365333 0.426666 0.512 0.298667 0.725333 0.896 1.28 1.194667a21.461333 21.461333 0 0 0 19.541333 0c0.512-0.256 0.725333-0.810667 1.194667-1.109333 0.426667-0.256 0.981333-0.170667 1.408-0.426667 1.792-1.28 181.034667-126.421333 395.776-126.421333 3.072 0 4.693333 0.213333 9.386667 0.085333a21.333333 21.333333 0 0 0 21.248-19.370667L982.101333 293.546667a21.333333 21.333333 0 0 0-13.994666-22.016z m-922.282667 36.821333c42.24-6.058667 172.373333-9.642667 422.485333 106.24v545.706667c-62.634667-37.376-205.269333-109.824-374.4-112.597334L45.824 308.352z m841.856 539.349333c-169.6 2.730667-313.770667 75.52-376.704 112.810667V414.592c250.794667-116.181333 383.744-112.469333 426.88-106.154667l-50.176 539.264z" p-id="7117" fill="#515151"></path></svg>