<?xml version="1.0" standalone="no"?><!DOCTYPE svg PUBLIC "-//W3C//DTD SVG 1.1//EN" "http://www.w3.org/Graphics/SVG/1.1/DTD/svg11.dtd"><svg t="1592285099291" class="icon" viewBox="0 0 1024 1024" version="1.1" xmlns="http://www.w3.org/2000/svg" p-id="24749" xmlns:xlink="http://www.w3.org/1999/xlink" width="128" height="128"><defs><style type="text/css"></style></defs><path d="M850.13 238.728H235.046c-48.988 0-88.852-39.899-88.852-88.886 0-48.99 39.865-88.884 88.852-88.884h528.508c15.312 0 27.677 12.395 27.677 27.677s-12.365 27.677-27.677 27.677H235.046c-18.488 0-33.5 15.04-33.5 33.53 0 18.493 15.012 33.533 33.5 33.533h615.085c15.307 0 27.676 12.396 27.676 27.678 0 15.276-12.37 27.675-27.677 27.675z m0 0M850.13 963.042H235.046c-48.988 0-88.852-39.894-88.852-88.912 0-15.282 12.364-27.677 27.676-27.677 15.313 0 27.677 12.395 27.677 27.677 0 18.523 15.012 33.56 33.5 33.56h615.085c15.307 0 27.676 12.398 27.676 27.676-0.002 15.282-12.371 27.676-27.678 27.676z m0 0" fill="#515151" p-id="24750"></path><path d="M173.869 901.807c-15.312 0-27.676-12.395-27.676-27.677V149.84c0-15.276 12.364-27.677 27.676-27.677 15.313 0 27.677 12.4 27.677 27.678V874.13c0 15.278-12.364 27.677-27.677 27.677z m0 0M850.13 963.042c-15.313 0-27.682-12.395-27.682-27.677V211.052c0-15.282 12.37-27.683 27.682-27.683 15.307 0 27.676 12.4 27.676 27.683v724.314c0 15.282-12.37 27.676-27.676 27.676z m0 0M763.554 238.728c-15.306 0-27.677-12.398-27.677-27.676V88.634c0-15.282 12.37-27.677 27.677-27.677s27.677 12.395 27.677 27.677v122.418c0 15.277-12.371 27.676-27.677 27.676z m0 0M672.36 418.66H339.393c-15.254 0-27.618-12.401-27.618-27.678 0-15.281 12.364-27.677 27.618-27.677h332.965c15.248 0 27.677 12.396 27.677 27.677 0 15.277-12.43 27.677-27.677 27.677z m0 0M512 544.135H339.394c-15.254 0-27.618-12.4-27.618-27.676 0-15.283 12.364-27.678 27.618-27.678H512c15.307 0 27.676 12.395 27.676 27.678 0 15.276-12.37 27.676-27.676 27.676z m0 0" fill="#515151" p-id="24751"></path></svg>