<?xml version="1.0" standalone="no"?><!DOCTYPE svg PUBLIC "-//W3C//DTD SVG 1.1//EN" "http://www.w3.org/Graphics/SVG/1.1/DTD/svg11.dtd"><svg t="1592284923885" class="icon" viewBox="0 0 1024 1024" version="1.1" xmlns="http://www.w3.org/2000/svg" p-id="15769" xmlns:xlink="http://www.w3.org/1999/xlink" width="128" height="128"><defs><style type="text/css"></style></defs><path d="M728.91418005 90.125H298.60168005v520.31250027a22.96875037 22.96875037 0 0 1-46.87500009 0V96.21875037a131.71875018 131.71875018 0 0 0-93.75000018 126.0937499v591.0937501A119.06250019 119.06250019 0 0 0 277.03917996 933.875h587.81250028V226.06250018a135.93750019 135.93750019 0 0 0-135.93750019-135.93750018zM427.97667978 200.75000018h315.93749991a22.03125018 22.03125018 0 0 1 22.50000027 22.49999945 22.50000027 22.50000027 0 0 1-22.50000027 22.50000028H427.97667978a22.50000027 22.50000027 0 0 1-22.50000028-22.50000028 22.03125018 22.03125018 0 0 1 22.50000028-22.49999945z m0 88.59375h281.24999973a22.50000027 22.50000027 0 0 1 0 46.87500009h-281.24999973a22.50000027 22.50000027 0 0 1 0-46.87500009z m0 272.34374963h261.09374991l-35.15624946-34.68750018a24.84374991 24.84374991 0 0 1 0-33.75 24.37499982 24.37499982 0 0 1 34.21874927 0l73.12500028 73.59375037a23.43749963 23.43749963 0 0 1 7.03124972 17.81250019 24.37499982 24.37499982 0 0 1-4.21875 13.59375018l-2.34374963 3.28124982-71.24999991 71.2499999a23.90624973 23.90624973 0 0 1-33.75 0 24.37499982 24.37499982 0 0 1 0-34.21875009l31.40624954-30.93750027H426.10168024a22.50000027 22.50000027 0 0 1-20.62500074-23.90624973 22.50000027 22.50000027 0 0 1 20.62500073-22.03125019z m393.28125018 320.15624992A3.28124982 3.28124982 0 0 1 814.22668023 886.99999991H259.22667978A53.90624982 53.90624982 0 0 1 204.85167987 834.03125027a57.18749963 57.18749963 0 0 1 53.43749972-55.31250009H814.22668023a3.28124982 3.28124982 0 0 1 3.74999992 3.74999991z" p-id="15770" fill="#515151"></path></svg>