<?xml version="1.0" standalone="no"?><!DOCTYPE svg PUBLIC "-//W3C//DTD SVG 1.1//EN" "http://www.w3.org/Graphics/SVG/1.1/DTD/svg11.dtd"><svg t="1592285071183" class="icon" viewBox="0 0 1024 1024" version="1.1" xmlns="http://www.w3.org/2000/svg" p-id="23503" xmlns:xlink="http://www.w3.org/1999/xlink" width="128" height="128"><defs><style type="text/css"></style></defs><path d="M344.96 358.4c-39.904 0-77.952 21.024-98.24 55.584a109.024 109.024 0 0 0-13.248 75.84l3.936 20.8-17.568 11.744A133.824 133.824 0 0 0 160 633.6c0 74.176 61.44 134.528 136.992 134.528h333.984c75.552 0 137.024-60.352 137.024-134.528a133.856 133.856 0 0 0-60.672-111.776l-17.856-11.776 4.032-20.96c15.2-79.04-28.992-158.368-105.152-188.608a174.176 174.176 0 0 0-197.216 48.352l-11.52 13.568c-14.784-2.624-26.336-3.968-34.656-3.968z m393.248-182.304C832 212.864 889.056 305.92 879.744 402.624a186.688 186.688 0 0 1 69.056 144.768c0 86.72-60.128 160-141.76 181.952a201.6 201.6 0 0 1-176.064 102.752H296.992C186.176 832.096 96 743.04 96 633.6c0-59.168 26.56-114.72 71.968-152.256a173.408 173.408 0 0 1 23.552-99.744 176.64 176.64 0 0 1 162.528-86.944 236.992 236.992 0 0 1 137.92-68.544c63.776-63.36 160.48-83.616 246.24-49.984z m-143.904 58.656c5.92 1.824 11.84 3.904 17.664 6.208 98.176 38.976 157.664 137.6 147.36 239.776a197.216 197.216 0 0 1 72.128 167.648c32.32-22.72 53.344-59.52 53.344-100.992 0-41.6-21.28-80.32-56.96-103.52l-18.048-11.744 4.128-21.184c14.304-73.44-27.36-147.2-99.104-175.296-35.008-13.728-72.832-15.904-120.512-0.896z" p-id="23504" fill="#515151"></path></svg>