<?xml version="1.0" standalone="no"?><!DOCTYPE svg PUBLIC "-//W3C//DTD SVG 1.1//EN" "http://www.w3.org/Graphics/SVG/1.1/DTD/svg11.dtd"><svg t="1592284737862" class="icon" viewBox="0 0 1024 1024" version="1.1" xmlns="http://www.w3.org/2000/svg" p-id="8069" xmlns:xlink="http://www.w3.org/1999/xlink" width="128" height="128"><defs><style type="text/css"></style></defs><path d="M713.57 510.61c-121.34 0-220.06-98.72-220.06-220.06S592.23 70.48 713.57 70.48s220.07 98.72 220.07 220.07-98.73 220.06-220.07 220.06z m0-393.81c-95.81 0-173.75 77.95-173.75 173.75S617.76 464.3 713.57 464.3s173.75-77.94 173.75-173.75S809.38 116.8 713.57 116.8z" p-id="8070" fill="#515151"></path><path d="M702.7 932.88H161.14c-38.31 0-69.47-31.16-69.47-69.47V247.36c0-38.31 31.16-69.47 69.47-69.47H576.2l-17.25 33.71c-12.69 24.8-19.13 51.36-19.13 78.95 0 95.81 77.95 173.75 173.75 173.75 10.06 0 20.3-0.97 31.3-2.98l27.31-4.97v407.06c0 38.31-31.17 69.47-69.48 69.47zM161.14 224.2c-12.77 0-23.16 10.39-23.16 23.16v616.05c0 12.77 10.39 23.16 23.16 23.16H702.7c12.77 0 23.16-10.39 23.16-23.16V510.24c-126.73 7.45-232.36-94.27-232.36-219.69 0-22.77 3.45-44.97 10.28-66.35H161.14zM690.41 186.67h46.31v146.62h-46.31z" p-id="8071" fill="#515151"></path><path d="M690.41 361.91h46.31v45.17h-46.31zM276.68 500.06h310.48v48.96H276.68zM276.68 618.49h310.48v48.96H276.68z" p-id="8072" fill="#515151"></path><path d="M432.17 545.34L294.33 412.77l32.1-33.38 105.23 101.2 101.72-100.95 32.63 32.87z" p-id="8073" fill="#515151"></path><path d="M408.76 512.96h46.31v263.01h-46.31z" p-id="8074" fill="#515151"></path></svg>