<?xml version="1.0" standalone="no"?><!DOCTYPE svg PUBLIC "-//W3C//DTD SVG 1.1//EN" "http://www.w3.org/Graphics/SVG/1.1/DTD/svg11.dtd"><svg t="1592284639775" class="icon" viewBox="0 0 1072 1024" version="1.1" xmlns="http://www.w3.org/2000/svg" p-id="5293" xmlns:xlink="http://www.w3.org/1999/xlink" width="134" height="128"><defs><style type="text/css"></style></defs><path d="M93.9 123.6h76.7c24.9 0 45-20.2 45-45V1.9L93.9 123.6zM1017.2 556.2l34.1-34.1c28.1-28.1 28.1-73.7 0-101.8-28.1-28.1-73.7-28.1-101.8 0l-34.1 34.1 101.8 101.8zM880.5 489.2L625.3 744.4l-44.9 146.8 146.7-44.9 255.2-255.2z" fill="#515151" p-id="5294"></path><path d="M700.4 953.6L509.5 962 568 721.1 930.1 359V69.6c0-37.3-30.6-67.8-68-67.8H237.9v75.9c0 37.6-30.5 68-68 68h-76v808.7c0 37.3 30.6 67.8 68 67.8h700.2c37.4 0 68-30.5 68-67.8V743.9L700.4 953.6zM259.8 188.3h504.6c25 0 45.4 20.2 45.4 45.2s-20.3 45.2-45.4 45.2H259.7c-25 0-45.3-20.2-45.3-45.2s20.3-45.2 45.4-45.2z m0 220.6h296.9c25 0 45.4 20.2 45.4 45.2s-20.3 45.2-45.4 45.2h-297c-25-0.1-45.3-20.3-45.3-45.2 0-25 20.3-45.2 45.4-45.2z m160.1 310.8H259.7c-25 0-45.4-20.2-45.4-45.2s20.3-45.2 45.4-45.2h160.2c25.1 0 45.4 20.2 45.4 45.2s-20.3 45.2-45.4 45.2z" fill="#515151" p-id="5295"></path></svg>