<?xml version="1.0" standalone="no"?><!DOCTYPE svg PUBLIC "-//W3C//DTD SVG 1.1//EN" "http://www.w3.org/Graphics/SVG/1.1/DTD/svg11.dtd"><svg t="1592284380434" class="icon" viewBox="0 0 1024 1024" version="1.1" xmlns="http://www.w3.org/2000/svg" p-id="3261" xmlns:xlink="http://www.w3.org/1999/xlink" width="128" height="128"><defs><style type="text/css"></style></defs><path d="M608 416a192 192 0 1 1-135.76 56.24A190.74 190.74 0 0 1 608 416m0-64c-141.39 0-256 114.62-256 256s114.61 256 256 256 256-114.62 256-256-114.61-256-256-256z" p-id="3262" fill="#515151"></path><path d="M640 64H128a64.19 64.19 0 0 0-64 64v768a64.19 64.19 0 0 0 64 64h512a64.19 64.19 0 0 0 64-64v-16.41a286.29 286.29 0 0 1-64 14.63v1.66l-0.11 0.11H128.11l-0.11-0.11V128.11l0.11-0.11h511.78l0.11 0.11v193.67a286.29 286.29 0 0 1 64 14.63V128a64.19 64.19 0 0 0-64-64zM774.63 729.37l-45.26 45.26L914.75 960 960 914.75 774.63 729.37z" p-id="3263" fill="#515151"></path><path d="M192 192h384v64H192zM192 320v64h235a286.63 286.63 0 0 1 149-62.22V320z m0 192h144.41a287 287 0 0 1 32.1-64H192z" p-id="3264" fill="#515151"></path></svg>