<?xml version="1.0" standalone="no"?><!DOCTYPE svg PUBLIC "-//W3C//DTD SVG 1.1//EN" "http://www.w3.org/Graphics/SVG/1.1/DTD/svg11.dtd"><svg t="1592284526130" class="icon" viewBox="0 0 1024 1024" version="1.1" xmlns="http://www.w3.org/2000/svg" p-id="5013" xmlns:xlink="http://www.w3.org/1999/xlink" width="128" height="128"><defs><style type="text/css"></style></defs><path d="M945.11 945.25c-10.18 10.88-27.29 11.47-38.26 1.29L795.81 835.51c-10.58-10.98-10.48-28.38 0.3-39.26 10.78-10.78 28.28-10.97 39.15-0.29L946.3 906.99c10.28 10.98 9.69 27.99-1.19 38.26z m-455.6-36.18c-231.66 0-419.42-187.76-419.42-419.42 0-231.66 187.76-419.52 419.52-419.52 231.66 0 419.52 187.76 419.52 419.52 0 111.23-44.19 217.92-122.9 296.62-78.71 78.6-185.49 122.8-296.72 122.8z m0-782.97c-147.03 0-279.61 88.59-335.87 224.44-56.26 135.85-25.11 292.17 78.8 396.19 104.02 104.01 260.33 135.06 396.19 78.8 135.85-56.26 224.44-188.85 224.44-335.87-0.01-200.82-162.75-363.56-363.56-363.56z m0 0" p-id="5014" fill="#515151"></path></svg>