<?xml version="1.0" standalone="no"?><!DOCTYPE svg PUBLIC "-//W3C//DTD SVG 1.1//EN" "http://www.w3.org/Graphics/SVG/1.1/DTD/svg11.dtd"><svg t="1592284452993" class="icon" viewBox="0 0 1024 1024" version="1.1" xmlns="http://www.w3.org/2000/svg" p-id="4308" xmlns:xlink="http://www.w3.org/1999/xlink" width="128" height="128"><defs><style type="text/css"></style></defs><path d="M98.182 64h357.646c19.063 0 34.43 15.366 34.43 34.182V455.85c0 19.041-15.366 34.408-34.43 34.408H98.182C79.616 490.258 64 474.892 64 455.85V98.182C64 79.366 79.616 64 98.182 64zM421.4 132.839H132.84v288.83H421.4v-288.83z m467.786 0H600.604v288.83h288.581v-288.83zM566.421 64h357.42c19.064 0 34.68 15.366 34.68 34.182v357.67c0 19.04-15.616 34.407-34.68 34.407h-357.42c-19.041 0-34.656-15.366-34.656-34.408V98.182c0-18.816 15.616-34.182 34.656-34.182zM132.84 889.433H421.4V600.871H132.84v288.562z m322.989 68.839H98.183c-18.566 0-34.182-15.366-34.182-34.408V566.196c0-18.546 15.616-34.43 34.182-34.43H455.83c19.063 0 34.43 15.885 34.43 34.43v357.668c0 19.04-15.366 34.408-34.43 34.408z m468.011 0H566.42c-19.041 0-34.656-15.366-34.656-34.408v-357.67c0-18.545 15.616-34.43 34.655-34.43H923.84c19.064 0 34.68 15.886 34.68 34.43v357.669c0 19.04-15.616 34.409-34.68 34.409z m-323.236-68.839h288.581V600.871H600.604v288.562z" p-id="4309" fill="#515151"></path></svg>