<?xml version="1.0" standalone="no"?><!DOCTYPE svg PUBLIC "-//W3C//DTD SVG 1.1//EN" "http://www.w3.org/Graphics/SVG/1.1/DTD/svg11.dtd"><svg t="1592284982157" class="icon" viewBox="0 0 1024 1024" version="1.1" xmlns="http://www.w3.org/2000/svg" p-id="18592" xmlns:xlink="http://www.w3.org/1999/xlink" width="128" height="128"><defs><style type="text/css"></style></defs><path d="M515 1c-33.1 0-60 26.9-60 60v95c0 33.1 26.9 60 60 60s60-26.9 60-60V61c0-33.1-26.9-60-60-60zM289 1c-33.1 0-60 26.9-60 60v95c0 33.1 26.9 60 60 60s60-26.9 60-60V61c0-33.1-26.9-60-60-60zM741 1c-33.1 0-60 26.9-60 60v95c0 33.1 26.9 60 60 60s60-26.9 60-60V61c0-33.1-26.9-60-60-60zM640 622H475c-22.1 0-40-17.9-40-40s17.9-40 40-40h165c22.1 0 40 17.9 40 40s-17.9 40-40 40zM760 820H475c-22.1 0-40-17.9-40-40s17.9-40 40-40h285c22.1 0 40 17.9 40 40s-17.9 40-40 40zM760 430H475c-22.1 0-40-17.9-40-40s17.9-40 40-40h285c22.1 0 40 17.9 40 40s-17.9 40-40 40z" fill="#515151" p-id="18593"></path><path d="M861 147v797H169V147h692m20-80H149c-33.1 0-60 26.9-60 60v837c0 33.1 26.9 60 60 60h732c33.1 0 60-26.9 60-60V127c0-33.1-26.9-60-60-60z" fill="#515151" p-id="18594"></path><path d="M302.8 319.7c-3 0-6.1 1.6-7.6 4.8l-14.3 29c-1.2 2.5-3.6 4.3-6.4 4.7l-32 4.6c-7 1-9.8 9.6-4.7 14.5l23.1 22.6c2 2 2.9 4.8 2.5 7.5l-5.5 31.8c-0.9 5.5 3.4 10 8.4 10 1.3 0 2.7-0.3 4-1l28.6-15c1.2-0.7 2.6-1 4-1s2.7 0.3 4 1l28.6 15c1.3 0.7 2.7 1 4 1 5 0 9.3-4.5 8.4-10l-5.5-31.8c-0.5-2.8 0.4-5.6 2.5-7.5l23.1-22.6c5.1-4.9 2.3-13.5-4.7-14.5l-32-4.6c-2.8-0.4-5.2-2.1-6.4-4.7l-14.3-29c-1.7-3.2-4.7-4.8-7.8-4.8zM302.8 509.7c-3 0-6.1 1.6-7.6 4.8l-14.3 29c-1.2 2.5-3.6 4.3-6.4 4.7l-32 4.6c-7 1-9.8 9.6-4.7 14.5l23.1 22.6c2 2 2.9 4.8 2.5 7.5l-5.5 31.8c-0.9 5.5 3.4 10 8.4 10 1.3 0 2.7-0.3 4-1l28.6-15c1.2-0.7 2.6-1 4-1s2.7 0.3 4 1l28.6 15c1.3 0.7 2.7 1 4 1 5 0 9.3-4.5 8.4-10l-5.5-31.8c-0.5-2.8 0.4-5.6 2.5-7.5l23.1-22.6c5.1-4.9 2.3-13.5-4.7-14.5l-32-4.6c-2.8-0.4-5.2-2.1-6.4-4.7l-14.3-29c-1.7-3.2-4.7-4.8-7.8-4.8zM302.8 699.7c-3 0-6.1 1.6-7.6 4.8l-14.3 29c-1.2 2.5-3.6 4.3-6.4 4.7l-32 4.6c-7 1-9.8 9.6-4.7 14.5l23.1 22.6c2 2 2.9 4.8 2.5 7.5l-5.5 31.8c-0.9 5.5 3.4 10 8.4 10 1.3 0 2.7-0.3 4-1l28.6-15c1.2-0.7 2.6-1 4-1s2.7 0.3 4 1l28.6 15c1.3 0.7 2.7 1 4 1 5 0 9.3-4.5 8.4-10l-5.5-31.8c-0.5-2.8 0.4-5.6 2.5-7.5l23.1-22.6c5.1-4.9 2.3-13.5-4.7-14.5l-32-4.6c-2.8-0.4-5.2-2.1-6.4-4.7l-14.3-29c-1.7-3.2-4.7-4.8-7.8-4.8z" fill="#515151" p-id="18595"></path></svg>