<?xml version="1.0" standalone="no"?><!DOCTYPE svg PUBLIC "-//W3C//DTD SVG 1.1//EN" "http://www.w3.org/Graphics/SVG/1.1/DTD/svg11.dtd"><svg t="1592285108487" class="icon" viewBox="0 0 1024 1024" version="1.1" xmlns="http://www.w3.org/2000/svg" p-id="25612" xmlns:xlink="http://www.w3.org/1999/xlink" width="128" height="128"><defs><style type="text/css"></style></defs><path d="M656.79 499.92A241.63 241.63 0 0 0 754 306c0-133.65-108.35-242-242-242S270 172.35 270 306a241.63 241.63 0 0 0 97.21 193.92C190.84 560.12 64 727.25 64 924a36 36 0 0 0 72 0c0-207.66 168.34-376 376-376s376 168.34 376 376a36 36 0 0 0 72 0c0-196.75-126.84-363.88-303.21-424.08zM342 306a170 170 0 1 1 170 170 170 170 0 0 1-170-170z" p-id="25613" fill="#515151"></path></svg>