<?xml version="1.0" standalone="no"?><!DOCTYPE svg PUBLIC "-//W3C//DTD SVG 1.1//EN" "http://www.w3.org/Graphics/SVG/1.1/DTD/svg11.dtd"><svg t="1592284262320" class="icon" viewBox="0 0 1024 1024" version="1.1" xmlns="http://www.w3.org/2000/svg" p-id="1215" width="128" height="128" xmlns:xlink="http://www.w3.org/1999/xlink"><defs><style type="text/css"></style></defs><path d="M800.941 406.572a363.67 363.67 0 0 1-2.763 25.749C776.735 580.909 658.932 688.77 518.094 688.77H472.22l-8.406 8.764c31.631 58.692 90.435 97.028 156.53 97.028h45.593l90.226 94.185a30.17 30.17 0 0 0 21.808 9.327c3.777 0 7.586-0.71 11.257-2.186 11.43-4.57 18.909-15.668 18.909-27.981v-76.995c83.988-17.422 146.168-96.328 146.168-191.625 0-97.472-66.654-178.233-153.365-192.715z" fill="#515151" p-id="1216"></path><path d="M755.185 426.126c2.1-14.6 3.112-27.722 3.112-40.17 0-142.983-107.756-259.337-240.202-259.337h-207.53c-132.46 0-240.221 116.354-240.221 259.338 0 128.374 84.829 234.279 198.528 255.466v109.324a35.16 35.16 0 0 0 22.053 32.62c4.262 1.699 8.685 2.546 13.072 2.546 9.436 0 18.65-3.803 25.412-10.857l124.25-129.748h64.436c119.042 0.001 218.742-92.174 237.09-219.182zM243.792 305.801h337.615c9.438 0 17.13 8.124 17.13 18.106 0 9.986-7.692 18.096-17.13 18.096H243.792c-9.455 0-17.139-8.11-17.139-18.096 0-9.982 7.683-18.106 17.139-18.106z m202.705 167.99H243.792c-9.455 0-17.139-8.105-17.139-18.075 0-10.007 7.684-18.13 17.139-18.13h202.705c9.436 0 17.144 8.123 17.144 18.13 0 9.97-7.708 18.074-17.144 18.074z" fill="#515151" p-id="1217"></path></svg>