<?xml version="1.0" standalone="no"?><!DOCTYPE svg PUBLIC "-//W3C//DTD SVG 1.1//EN" "http://www.w3.org/Graphics/SVG/1.1/DTD/svg11.dtd"><svg t="1592285083508" class="icon" viewBox="0 0 1024 1024" version="1.1" xmlns="http://www.w3.org/2000/svg" p-id="24544" xmlns:xlink="http://www.w3.org/1999/xlink" width="128" height="128"><defs><style type="text/css"></style></defs><path d="M910.912 291.136l-45.824 46.016c-48.832 49.024-128.32 49.024-177.152 0s-48.832-128.832 0-177.856l45.824-46.016c25.28-25.408 8.384-55.296-37.184-48.192a228.224 228.224 0 0 0-126.72 64.576 231.04 231.04 0 0 0-62.144 210.624l-384.32 385.92a126.208 126.208 0 0 0 0 177.792 124.992 124.992 0 0 0 177.088 0l384.384-385.92a229.12 229.12 0 0 0 274.048-189.568c7.104-45.76-22.656-62.784-48-37.376z m-669.44 553.536c-16.32 16.384-42.752 16.384-59.072 0s-16.32-42.88 0-59.264a41.856 41.856 0 0 1 59.072 59.264z m-41.728-545.856L344.448 444.16l59.072-59.264-144.704-145.344-32.448-62.208-103.296-74.112L64 162.496 137.792 266.24l61.952 32.576z m484.288 308.288a20.8 20.8 0 0 0-29.504 0l-88.576 88.96a21.056 21.056 0 0 0 0 29.632l208.96 209.792c32.64 32.704 85.568 32.704 118.144 0 32.64-32.704 32.64-85.824 0-118.592l-209.024-209.792z" p-id="24545" fill="#515151"></path></svg>