<?xml version="1.0" standalone="no"?><!DOCTYPE svg PUBLIC "-//W3C//DTD SVG 1.1//EN" "http://www.w3.org/Graphics/SVG/1.1/DTD/svg11.dtd"><svg t="1592285001452" class="icon" viewBox="0 0 1024 1024" version="1.1" xmlns="http://www.w3.org/2000/svg" p-id="19467" xmlns:xlink="http://www.w3.org/1999/xlink" width="128" height="128"><defs><style type="text/css"></style></defs><path d="M362.1 698.1h-29.2c-16.1 0-29.2-13.2-29.2-29.2 0-16.1 13.1-29.2 29.2-29.2h29.2c16.1 0 29.2 13.2 29.2 29.2s-13.2 29.2-29.2 29.2zM362.1 458.5h-29.2c-16.1 0-29.2-13.2-29.2-29.2 0-16.1 13.1-29.2 29.2-29.2h29.2c16.1 0 29.2 13.2 29.2 29.2s-13.2 29.2-29.2 29.2zM689 698.1H484.5c-16.1 0-29.2-13.2-29.2-29.2 0-16.1 13.1-29.2 29.2-29.2H689c16.1 0 29.2 13.2 29.2 29.2 0.1 16-13.1 29.2-29.2 29.2zM689.1 458.5H484.5c-16.1 0-29.2-13.2-29.2-29.2 0-16.1 13.1-29.2 29.2-29.2H689c16.1 0 29.2 13.2 29.2 29.2 0.1 16-13.1 29.2-29.1 29.2z" p-id="19468" fill="#515151"></path><path d="M781.3 960H242.8c-49.4 0-89.8-43.4-89.8-96.5V220.4c0-53.1 40.4-96.5 89.8-96.5 16.5 0 29.9 14.5 29.9 32.2 0 17.7-13.5 32.2-29.9 32.2-16.5 0-29.9 14.5-29.9 32.2v643.2c0 17.7 13.5 32.2 29.9 32.2h538.5c16.5 0 29.9-14.5 29.9-32.2V220.4c0-17.7-13.5-32.2-29.9-32.2-16.5 0-29.9-14.5-29.9-32.2 0-17.7 13.5-32.2 29.9-32.2 49.4 0 89.7 43.4 89.7 96.5v643.2c0 53.1-40.4 96.5-89.7 96.5z" p-id="19469" fill="#515151"></path><path d="M601.8 122.5c11.2 0 18.6 5.8 22.1 9.3 3.5 3.5 9.3 10.9 9.3 22.1 0 11.2-5.8 18.6-9.3 22.1-3.5 3.5-10.9 9.3-22.1 9.3H422.2c-11.2 0-18.6-5.8-22.1-9.3-3.5-3.5-9.3-10.9-9.3-22.1 0-11.2 5.8-18.6 9.2-22.1 3.5-3.5 10.9-9.3 22.1-9.3h179.7m0-58.5H422.2c-49.4 0-89.7 40.4-89.7 89.8s40.4 89.8 89.7 89.8h179.5c49.4 0 89.8-40.4 89.8-89.8S651.1 64 601.8 64z" p-id="19470" fill="#515151"></path></svg>