<?xml version="1.0" standalone="no"?><!DOCTYPE svg PUBLIC "-//W3C//DTD SVG 1.1//EN" "http://www.w3.org/Graphics/SVG/1.1/DTD/svg11.dtd"><svg t="1592285057215" class="icon" viewBox="0 0 1024 1024" version="1.1" xmlns="http://www.w3.org/2000/svg" p-id="22643" xmlns:xlink="http://www.w3.org/1999/xlink" width="128" height="128"><defs><style type="text/css"></style></defs><path d="M320 992a320 320 0 0 1-226.24-546.24L463.68 49.28 512 92.8 139.84 490.24a256 256 0 1 0 361.28 362.88l401.92-428.48a192 192 0 1 0-270.72-272.32L230.08 580.8a128 128 0 0 0 0 182.08A128 128 0 0 0 320 800a130.56 130.56 0 0 0 90.88-37.76l384-402.24 46.4 44.16-384.96 403.2A192 192 0 0 1 320 864a192 192 0 0 1-135.68-327.68L586.24 107.84A256 256 0 0 1 1024 288a256 256 0 0 1-74.88 181.12L546.88 897.6A320 320 0 0 1 320 992z" fill="#515151" p-id="22644"></path></svg>