<?xml version="1.0" standalone="no"?><!DOCTYPE svg PUBLIC "-//W3C//DTD SVG 1.1//EN" "http://www.w3.org/Graphics/SVG/1.1/DTD/svg11.dtd"><svg t="1592284967731" class="icon" viewBox="0 0 1024 1024" version="1.1" xmlns="http://www.w3.org/2000/svg" p-id="17544" xmlns:xlink="http://www.w3.org/1999/xlink" width="128" height="128"><defs><style type="text/css"></style></defs><path d="M742.4 860.8H281.6c-67.2 0-118.4-54.4-118.4-118.4V281.6c0-67.2 54.4-118.4 118.4-118.4h457.6c67.2 0 118.4 54.4 118.4 118.4v457.6c3.2 67.2-51.2 121.6-115.2 121.6z m-355.2-99.2h198.4c12.8 0 25.6-9.6 25.6-25.6s-9.6-25.6-25.6-25.6h-198.4c-12.8 0-25.6 9.6-25.6 25.6s12.8 25.6 25.6 25.6z m358.4-435.2c-19.2-16-44.8-19.2-60.8-3.2l-195.2 182.4-99.2-92.8c-16-16-44.8-12.8-60.8 3.2-19.2 16-19.2 41.6-3.2 57.6l131.2 124.8 3.2 3.2c6.4 6.4 16 9.6 25.6 9.6h6.4c9.6 0 19.2-3.2 25.6-9.6l3.2-3.2 227.2-214.4c16-16 16-41.6-3.2-57.6z" p-id="17545" fill="#515151"></path></svg>